<svg width="118" height="98" viewBox="0 0 118 98" fill="none" xmlns="http://www.w3.org/2000/svg">
<path d="M61.9997 -10.771C94.9933 -10.771 121.771 16.0064 121.771 49C121.771 81.9936 94.9933 108.771 61.9997 108.771C29.0062 108.771 2.22876 81.9936 2.22876 49C2.22874 16.0064 29.0062 -10.771 61.9997 -10.771Z" stroke="#EDEDED" stroke-width="4.12214"/>
<path d="M68.8847 -3.27417V2.86395C76.6086 4.00616 83.7164 7.03048 89.7208 11.4753L94.0555 7.14711C86.8892 1.6477 78.2756 -2.04887 68.8847 -3.27417ZM55.082 -3.25485C45.6965 -2.02249 37.0914 1.68179 29.9305 7.17931L34.2394 11.5076H34.2587C40.26 7.05978 47.3609 4.0128 55.082 2.86395V-3.25485ZM58.1349 9.25326V29.9155C55.6318 30.4208 53.2921 31.396 51.2368 32.7623L36.6225 18.1545L31.1543 23.6228L45.7814 38.2499C44.4188 40.3026 43.4261 42.6364 42.9217 45.1352H22.253V52.8642H42.9217C43.426 55.3617 44.4196 57.6782 45.7814 59.7301L31.1543 74.3637L36.6225 79.832L51.2368 65.2177C53.2921 66.584 55.6318 67.5721 58.1349 68.0774V88.7461H65.8639V68.0774C68.3694 67.5716 70.6924 66.5668 72.7492 65.1984L87.3763 79.832L92.8446 74.3637L78.2175 59.7301C79.5787 57.6785 80.5794 55.3611 81.0836 52.8642H101.746V45.1352H81.0836C80.5793 42.637 79.5796 40.3023 78.2175 38.2499L92.8446 23.6228L87.3763 18.1545L72.7492 32.7816C70.6924 31.4133 68.3694 30.4213 65.8639 29.9155V9.25326H58.1349ZM103.82 16.9114L99.4915 21.2397C103.948 27.2466 106.986 34.3705 108.135 42.1015H114.273C113.041 32.7052 109.33 24.0785 103.82 16.9114ZM20.1597 16.9436C14.6606 24.1038 10.9566 32.7158 9.72559 42.1015H15.8701C17.0175 34.383 20.0478 27.2792 24.4944 21.2783L20.1597 16.9436ZM9.72559 55.8978C10.9531 65.2822 14.6508 73.8938 20.1469 81.0557L24.4751 76.721C20.0335 70.721 17.0143 63.6152 15.8701 55.8978H9.72559ZM108.135 55.8978C106.986 63.6238 103.946 70.7332 99.4915 76.7404L103.82 81.0686C109.325 73.904 113.039 65.2886 114.273 55.8978H108.135ZM34.2394 86.4918L29.9112 90.82C37.074 96.3272 45.6922 100.039 55.082 101.274V95.129C47.3575 93.9783 40.242 90.9448 34.2394 86.4918ZM89.7208 86.5047C83.7143 90.9538 76.6118 94.0047 68.8847 95.1483V101.274C78.2766 100.047 86.8892 96.3386 94.0555 90.8394L89.7401 86.5047H89.7208Z" fill="#EDEDED"/>
</svg>
