<svg width="1160" height="167" viewBox="0 0 1160 167" fill="none" xmlns="http://www.w3.org/2000/svg">
<path d="M16 77.5H27L23 83.5V88.5H20V83.5L16 77.5Z" stroke="#3B3B3B" stroke-linecap="round" stroke-linejoin="round"/>
<path d="M48 77L55.5 81.5L48 86L40.5 81.5L48 77Z" stroke="#3B3B3B" stroke-miterlimit="10" stroke-linecap="round" stroke-linejoin="round"/>
<path d="M54 84.6L55.5 85.5L48 90L40.5 85.5L42 84.6" stroke="#3B3B3B" stroke-miterlimit="10" stroke-linecap="round" stroke-linejoin="round"/>
<g clip-path="url(#clip0_12_859)">
<path d="M78 87.5V85C78 84.6022 77.842 84.2206 77.5607 83.9393C77.2794 83.658 76.8978 83.5 76.5 83.5V83.5C76.1022 83.5 75.7206 83.658 75.4393 83.9393C75.158 84.2206 75 84.6022 75 85V88.5C75.0522 89.001 75.2136 89.4844 75.4728 89.9163C75.7319 90.3482 76.0825 90.7181 76.5 91H80L81.348 86.508C81.4473 86.1749 81.4587 85.8218 81.381 85.483L80.181 80.274C80.0663 79.7766 79.7658 79.342 79.341 79.059L78.5 78.5" stroke="#3B3B3B" stroke-linecap="round" stroke-linejoin="round"/>
<path d="M78.5 82V76H70.5V87H72.5" stroke="#3B3B3B" stroke-linecap="round" stroke-linejoin="round"/>
</g>
<path d="M102 78.5V88.5" stroke="#3B3B3B" stroke-linecap="round" stroke-linejoin="round"/>
<path d="M97 83.5H107" stroke="#3B3B3B" stroke-linecap="round" stroke-linejoin="round"/>
<g clip-path="url(#clip1_12_859)">
<path d="M120.5 80H131.5" stroke="#3B3B3B" stroke-linecap="round" stroke-linejoin="round"/>
<path d="M124.5 80V78H127.5V80" stroke="#3B3B3B" stroke-linecap="round" stroke-linejoin="round"/>
<path d="M129.5 82V88C129.5 88.2652 129.395 88.5196 129.207 88.7071C129.02 88.8946 128.765 89 128.5 89H123.5C123.235 89 122.98 88.8946 122.793 88.7071C122.605 88.5196 122.5 88.2652 122.5 88V82" stroke="#3B3B3B" stroke-linecap="round" stroke-linejoin="round"/>
</g>
<g clip-path="url(#clip2_12_859)">
<path d="M152 79.5L154 81.5" stroke="#3B3B3B" stroke-linecap="round" stroke-linejoin="round"/>
<path d="M148 87.5L155.08 80.45C155.349 80.1808 155.5 79.8157 155.5 79.435C155.5 79.0543 155.349 78.6892 155.08 78.42C154.811 78.1508 154.446 77.9996 154.065 77.9996C153.684 77.9996 153.319 78.1508 153.05 78.42L146 85.5L144.5 89L148 87.5Z" stroke="#3B3B3B" stroke-linecap="round" stroke-linejoin="round"/>
</g>
<g clip-path="url(#clip3_12_859)">
<path d="M174 82C175.105 82 176 81.1046 176 80C176 78.8954 175.105 78 174 78C172.895 78 172 78.8954 172 80C172 81.1046 172.895 82 174 82Z" stroke="#3B3B3B" stroke-linecap="round" stroke-linejoin="round"/>
<path d="M174 84C173.343 84 172.693 84.1293 172.087 84.3806C171.48 84.6319 170.929 85.0002 170.464 85.4645C169.527 86.4021 169 87.6739 169 89H179C179 87.6739 178.473 86.4021 177.536 85.4645C176.598 84.5268 175.326 84 174 84V84Z" stroke="#3B3B3B" stroke-linecap="round" stroke-linejoin="round"/>
</g>
<g clip-path="url(#clip4_12_859)">
<path d="M200.5 84L201.5 85L203.5 83L202.5 82" stroke="#3B3B3B" stroke-linecap="round" stroke-linejoin="round"/>
<path d="M197.621 83.879L203.5 78" stroke="#3B3B3B" stroke-linecap="round" stroke-linejoin="round"/>
<path d="M195.5 89C197.157 89 198.5 87.6569 198.5 86C198.5 84.3431 197.157 83 195.5 83C193.843 83 192.5 84.3431 192.5 86C192.5 87.6569 193.843 89 195.5 89Z" stroke="#3B3B3B" stroke-linecap="round" stroke-linejoin="round"/>
</g>
<g clip-path="url(#clip5_12_859)">
<path d="M224.5 83.5H216.5" stroke="#3B3B3B" stroke-linecap="round" stroke-linejoin="round"/>
<path d="M221.5 86.5L224.5 83.5L221.5 80.5" stroke="#3B3B3B" stroke-linecap="round" stroke-linejoin="round"/>
<path d="M216.5 81V79.5C216.5 79.1022 216.658 78.7206 216.939 78.4393C217.221 78.158 217.602 78 218 78H226C226.398 78 226.779 78.158 227.061 78.4393C227.342 78.7206 227.5 79.1022 227.5 79.5V87.5C227.5 87.8978 227.342 88.2794 227.061 88.5607C226.779 88.842 226.398 89 226 89H218C217.602 89 217.221 88.842 216.939 88.5607C216.658 88.2794 216.5 87.8978 216.5 87.5V86" stroke="#3B3B3B" stroke-linecap="round" stroke-linejoin="round"/>
</g>
<g clip-path="url(#clip6_12_859)">
<path d="M245.5 89L251.5 83.5L245.5 78V82H240.5V85H245.5V89Z" stroke="#3B3B3B" stroke-linecap="round" stroke-linejoin="round"/>
</g>
<g clip-path="url(#clip7_12_859)">
<path d="M271.5 89C274.814 89 277.5 86.3137 277.5 83C277.5 79.6863 274.814 77 271.5 77C268.186 77 265.5 79.6863 265.5 83C265.5 86.3137 268.186 89 271.5 89Z" stroke="#3B3B3B" stroke-miterlimit="10" stroke-linecap="round" stroke-linejoin="round"/>
<path d="M279.5 91L275.742 87.242" stroke="#3B3B3B" stroke-miterlimit="10" stroke-linecap="round" stroke-linejoin="round"/>
</g>
<path d="M299.125 78.625H302.875V82.375" stroke="#3B3B3B" stroke-linecap="round" stroke-linejoin="round"/>
<path d="M302.875 78.625L298.886 82.6135" stroke="#3B3B3B" stroke-linecap="round" stroke-linejoin="round"/>
<path d="M296.5 88.375C298.364 88.375 299.875 86.864 299.875 85C299.875 83.136 298.364 81.625 296.5 81.625C294.636 81.625 293.125 83.136 293.125 85C293.125 86.864 294.636 88.375 296.5 88.375Z" stroke="#3B3B3B" stroke-linecap="round" stroke-linejoin="round"/>
<g clip-path="url(#clip8_12_859)">
<path d="M322.375 89.125V85.375" stroke="#3B3B3B" stroke-linecap="round" stroke-linejoin="round"/>
<path d="M320.875 87.625H323.875" stroke="#3B3B3B" stroke-linecap="round" stroke-linejoin="round"/>
<path d="M322.375 85.375C324.446 85.375 326.125 83.6961 326.125 81.625C326.125 79.5539 324.446 77.875 322.375 77.875C320.304 77.875 318.625 79.5539 318.625 81.625C318.625 83.6961 320.304 85.375 322.375 85.375Z" stroke="#3B3B3B" stroke-linecap="round" stroke-linejoin="round"/>
</g>
<g clip-path="url(#clip9_12_859)">
<path d="M350.084 77.341L354.143 81.4" stroke="#3B3B3B" stroke-miterlimit="10" stroke-linecap="round" stroke-linejoin="round"/>
<path d="M348.492 78.224C346.498 77.365 344.097 77.75 342.468 79.379C342.134 79.713 341.859 80.082 341.63 80.47L343.97 82.81" stroke="#3B3B3B" stroke-miterlimit="10" stroke-linecap="round" stroke-linejoin="round"/>
<path d="M353.266 82.973C354.146 84.974 353.761 87.393 352.122 89.032C351.788 89.366 351.419 89.641 351.03 89.871L348.68 87.521" stroke="#3B3B3B" stroke-miterlimit="10" stroke-linecap="round" stroke-linejoin="round"/>
<path d="M346.812 88.549L342.951 84.688C342.951 84.688 346.249 76.483 355.5 76C354.977 85.211 346.812 88.549 346.812 88.549Z" stroke="#3B3B3B" stroke-miterlimit="10" stroke-linecap="round" stroke-linejoin="round"/>
<mask id="path-35-inside-1_12_859" fill="white">
<path d="M343.914 90.414C343.133 91.195 340 91.5 340 91.5C340 91.5 340.305 88.367 341.086 87.586C341.867 86.805 343.133 86.805 343.914 87.586C344.695 88.367 344.695 89.633 343.914 90.414Z"/>
</mask>
<path d="M340 91.5L339.005 91.4031L338.887 92.6131L340.097 92.4953L340 91.5ZM343.207 89.7069C343.208 89.7055 343.171 89.7401 343.062 89.7969C342.958 89.8508 342.82 89.9085 342.648 89.9673C342.305 90.0852 341.889 90.1862 341.47 90.2688C341.056 90.3505 340.662 90.4099 340.37 90.4489C340.224 90.4683 340.105 90.4825 340.024 90.4917C339.983 90.4963 339.952 90.4997 339.931 90.5018C339.921 90.5029 339.913 90.5037 339.909 90.5042C339.906 90.5044 339.905 90.5046 339.904 90.5046C339.903 90.5047 339.903 90.5047 339.903 90.5047C339.903 90.5047 339.903 90.5047 339.903 90.5047C339.903 90.5047 339.903 90.5047 339.903 90.5047C339.903 90.5047 339.903 90.5047 340 91.5C340.097 92.4953 340.097 92.4953 340.097 92.4953C340.097 92.4953 340.097 92.4952 340.097 92.4952C340.098 92.4952 340.098 92.4952 340.098 92.4951C340.099 92.4951 340.1 92.495 340.101 92.4949C340.103 92.4947 340.106 92.4944 340.109 92.494C340.117 92.4933 340.127 92.4923 340.14 92.4909C340.165 92.4882 340.202 92.4843 340.249 92.479C340.341 92.4685 340.474 92.4527 340.634 92.4314C340.953 92.3888 341.391 92.3231 341.858 92.2309C342.32 92.1396 342.834 92.018 343.297 91.8591C343.724 91.7129 344.254 91.488 344.621 91.1211L343.207 89.7069ZM340 91.5C340.995 91.5969 340.995 91.597 340.995 91.5971C340.995 91.5971 340.995 91.5972 340.995 91.5972C340.995 91.5972 340.995 91.5972 340.995 91.5972C340.995 91.5971 340.995 91.5968 340.995 91.5964C340.995 91.5955 340.996 91.5938 340.996 91.5914C340.996 91.5867 340.997 91.5791 340.998 91.5688C341 91.5483 341.004 91.517 341.008 91.4763C341.018 91.3948 341.032 91.276 341.051 91.1304C341.09 90.8381 341.149 90.4437 341.231 90.0295C341.314 89.6112 341.415 89.1952 341.533 88.8515C341.591 88.6802 341.649 88.5422 341.703 88.4383C341.76 88.3286 341.795 88.2917 341.793 88.2931L340.379 86.8789C340.012 87.2458 339.787 87.7763 339.641 88.2026C339.482 88.666 339.36 89.1796 339.269 89.6422C339.177 90.109 339.111 90.5466 339.069 90.8661C339.047 91.0264 339.031 91.1585 339.021 91.2514C339.016 91.2979 339.012 91.3347 339.009 91.3604C339.008 91.3733 339.007 91.3834 339.006 91.3905C339.006 91.3941 339.005 91.397 339.005 91.3991C339.005 91.4001 339.005 91.401 339.005 91.4017C339.005 91.402 339.005 91.4023 339.005 91.4025C339.005 91.4026 339.005 91.4028 339.005 91.4028C339.005 91.403 339.005 91.4031 340 91.5ZM341.793 88.2931C342.184 87.9026 342.816 87.9026 343.207 88.2931L344.621 86.8789C343.45 85.7074 341.55 85.7074 340.379 86.8789L341.793 88.2931ZM343.207 88.2931C343.597 88.6836 343.597 89.3164 343.207 89.7069L344.621 91.1211C345.793 89.9496 345.793 88.0504 344.621 86.8789L343.207 88.2931Z" fill="#3B3B3B" mask="url(#path-35-inside-1_12_859)"/>
<path d="M349 83.5C349.552 83.5 350 83.0523 350 82.5C350 81.9477 349.552 81.5 349 81.5C348.448 81.5 348 81.9477 348 82.5C348 83.0523 348.448 83.5 349 83.5Z" fill="#3B3B3B"/>
</g>
<g clip-path="url(#clip10_12_859)">
<path d="M373 88H371.5V84.5C371.5 82.015 373.515 80 376 80C378.485 80 380.5 82.015 380.5 84.5V88H379" stroke="#3B3B3B" stroke-miterlimit="10" stroke-linecap="round" stroke-linejoin="round"/>
<path d="M371.5 78H374" stroke="#3B3B3B" stroke-miterlimit="10" stroke-linecap="round" stroke-linejoin="round"/>
<path d="M380.5 78H378" stroke="#3B3B3B" stroke-miterlimit="10" stroke-linecap="round" stroke-linejoin="round"/>
<path d="M373 88C373 87.172 373.672 86.5 374.5 86.5L377.5 86.5C378.328 86.5 379 87.172 379 88C379 88.828 378.328 89.5 377.5 89.5L374.5 89.5C373.672 89.5 373 88.828 373 88Z" stroke="#3B3B3B" stroke-miterlimit="10" stroke-linecap="round" stroke-linejoin="round"/>
<path d="M376 80C377.105 80 378 79.1046 378 78C378 76.8954 377.105 76 376 76C374.895 76 374 76.8954 374 78C374 79.1046 374.895 80 376 80Z" stroke="#3B3B3B" stroke-miterlimit="10" stroke-linecap="round" stroke-linejoin="round"/>
</g>
<g clip-path="url(#clip11_12_859)">
<path d="M403.5 90C406.814 90 409.5 87.3137 409.5 84C409.5 80.6863 406.814 78 403.5 78C400.186 78 397.5 80.6863 397.5 84C397.5 87.3137 400.186 90 403.5 90Z" stroke="#3B3B3B" stroke-miterlimit="10" stroke-linecap="round" stroke-linejoin="round"/>
<path d="M411.064 87.5C411.561 88.843 411.577 89.923 411 90.5C409.619 91.881 405.366 89.866 401.5 86C397.634 82.134 395.619 77.881 397 76.5C397.577 75.923 398.657 75.939 400 76.436" stroke="#3B3B3B" stroke-miterlimit="10" stroke-linecap="round" stroke-linejoin="round"/>
</g>
<path d="M426.237 83.266C426.354 80.1511 427.933 77.2782 430.818 75.3798C430.827 75.383 430.902 75.3557 430.868 75.4204C430.639 75.6323 426.529 80.4871 430.312 84.3191C430.312 84.3191 432.3 86.2299 433.841 84.4168C433.841 84.4168 435.362 82.448 433.822 79.4634C433.822 79.4634 433.432 78.4888 432.027 77.8843L433.158 76.6363C433.158 76.6363 434.114 77.0464 434.854 78.1588C434.854 78.1588 434.894 76.9876 433.997 75.7397L435.751 73.75L437.487 75.721C437.487 75.721 436.688 76.852 436.629 78.1775C436.629 78.1775 437.175 77.2803 438.345 76.6364L439.456 77.8844C439.456 77.8844 438.388 78.2363 437.672 79.4506C437.057 80.5758 436.584 82.982 437.7 84.458C437.7 84.458 438.95 86.2299 441.148 84.3535C441.148 84.3535 445.189 80.7323 440.733 75.4968C440.733 75.4968 440.49 75.2816 440.763 75.3985C442.733 76.8324 445.091 78.7233 445.334 83.4424C445.238 89.1649 441.406 93.25 435.81 93.25C430.331 93.25 426.072 88.6778 426.237 83.266Z" fill="#C53030"/>
<path fill-rule="evenodd" clip-rule="evenodd" d="M471.693 86.6786C471.5 86.3968 470.469 84.8933 470.469 84.8933L471.255 87.0526L468.821 87.4059L471.255 87.7593L470.312 89.6044C470.312 89.6044 471.488 88.3687 471.654 88.194C471.585 90.8696 471.569 91.5281 471.569 91.5281C471.569 91.5281 465.562 88.7407 468.899 82.577C468.899 82.577 464.738 77.9837 468.506 75.1571C468.506 75.1571 462.068 79.0437 466.151 85.7177C466.151 85.7177 462.775 82.42 464.541 79.0829C464.541 79.0829 461.479 83.4015 465.209 88.1519C465.209 88.1519 464.188 87.5237 463.285 85.1289C463.285 85.1289 463.944 92.2581 471.92 92.3516C471.92 92.3526 471.92 92.3526 471.92 92.3526C471.947 92.3526 471.973 92.3524 471.999 92.3523C472.026 92.3525 472.052 92.3526 472.079 92.3526C472.079 92.3526 472.079 92.3526 472.079 92.3516C480.055 92.2581 480.714 85.1289 480.714 85.1289C479.811 87.5237 478.79 88.1519 478.79 88.1519C482.52 83.4015 479.458 79.0829 479.458 79.0829C481.224 82.42 477.848 85.7177 477.848 85.7177C481.931 79.0437 475.492 75.1571 475.492 75.1571C479.261 77.9837 475.1 82.577 475.1 82.577C478.437 88.7407 472.43 91.5281 472.43 91.5281C472.43 91.5281 472.413 90.8696 472.345 88.194C472.511 88.3687 473.687 89.6044 473.687 89.6044L472.744 87.7593L475.178 87.4059L472.744 87.0526L473.53 84.8933C473.53 84.8933 472.499 86.3968 472.306 86.6786C472.219 83.261 472.002 74.7812 472.001 74.7412C472 74.6471 472 74.6466 472 74.6466C472 74.6466 472 74.6467 471.999 74.6857C471.998 74.6467 471.998 74.6466 471.998 74.6466C471.998 74.6466 471.998 74.6471 471.998 74.7412C471.996 74.808 471.78 83.2687 471.693 86.6786" fill="#276749"/>
<path d="M472 72.25C465.787 72.25 460.75 77.2867 460.75 83.5C460.75 89.7132 465.787 94.75 472 94.75C478.213 94.75 483.25 89.7132 483.25 83.5C483.25 77.2867 478.213 72.25 472 72.25V72.25Z" stroke="#276749" stroke-width="0.00535718" stroke-miterlimit="10"/>
<path fill-rule="evenodd" clip-rule="evenodd" d="M472 72.25C465.787 72.25 460.75 77.2868 460.75 83.5C460.75 89.7131 465.787 94.75 472 94.75C478.213 94.75 483.25 89.7131 483.25 83.5C483.25 77.2868 478.213 72.25 472 72.25ZM472 73.5978C477.469 73.5978 481.902 78.0312 481.902 83.5C481.902 88.9687 477.469 93.4022 472 93.4022C466.531 93.4022 462.098 88.9687 462.098 83.5C462.098 78.0312 466.531 73.5978 472 73.5978Z" fill="#276749"/>
<path d="M508 72.8741C513.866 72.8741 518.626 77.6345 518.626 83.5C518.626 89.3655 513.866 94.126 508 94.126C502.134 94.126 497.374 89.3655 497.374 83.5C497.374 77.6345 502.134 72.8741 508 72.8741Z" stroke="#3B3B3B" stroke-width="0.732824"/>
<path d="M509.224 74.2069V75.2981C510.597 75.5012 511.861 76.0388 512.928 76.829L513.699 76.0596C512.425 75.0819 510.893 74.4247 509.224 74.2069ZM506.77 74.2103C505.102 74.4294 503.572 75.0879 502.299 76.0653L503.065 76.8347H503.068C504.135 76.044 505.398 75.5023 506.77 75.2981V74.2103ZM507.313 76.434V80.1073C506.868 80.1971 506.452 80.3705 506.087 80.6134L503.488 78.0164L502.516 78.9886L505.117 81.5889C504.874 81.9539 504.698 82.3688 504.608 82.813H500.934V84.187H504.608C504.698 84.631 504.875 85.0429 505.117 85.4076L502.516 88.0092L503.488 88.9813L506.087 86.3832C506.452 86.6261 506.868 86.8018 507.313 86.8916V90.566H508.687V86.8916C509.132 86.8017 509.545 86.623 509.911 86.3798L512.511 88.9813L513.484 88.0092L510.883 85.4076C511.125 85.0429 511.303 84.6309 511.393 84.187H515.066V82.813H511.393C511.303 82.3689 511.125 81.9538 510.883 81.5889L513.484 78.9886L512.511 78.0164L509.911 80.6168C509.545 80.3735 509.132 80.1972 508.687 80.1073V76.434H507.313ZM515.435 77.7954L514.665 78.5649C515.457 79.6328 515.998 80.8993 516.202 82.2737H517.293C517.074 80.6032 516.414 79.0696 515.435 77.7954ZM500.562 77.8012C499.584 79.0741 498.926 80.6051 498.707 82.2737H499.799C500.003 80.9015 500.542 79.6386 501.332 78.5718L500.562 77.8012ZM498.707 84.7263C498.925 86.3947 499.582 87.9256 500.559 89.1989L501.329 88.4283C500.539 87.3616 500.003 86.0983 499.799 84.7263H498.707ZM516.202 84.7263C515.997 86.0999 515.457 87.3637 514.665 88.4317L515.435 89.2012C516.413 87.9274 517.074 86.3958 517.293 84.7263H516.202ZM503.065 90.1653L502.295 90.9347C503.569 91.9138 505.101 92.5737 506.77 92.7931V91.7008C505.397 91.4962 504.132 90.9569 503.065 90.1653ZM512.928 90.1676C511.86 90.9585 510.598 91.5009 509.224 91.7042V92.7931C510.894 92.5751 512.425 91.9158 513.699 90.9382L512.932 90.1676H512.928Z" fill="#3B3B3B"/>
<path d="M544.5 93C549.471 93 553.5 88.9706 553.5 84C553.5 79.0294 549.471 75 544.5 75C539.529 75 535.5 79.0294 535.5 84C535.5 88.9706 539.529 93 544.5 93Z" stroke="#3B3B3B" stroke-miterlimit="10" stroke-linecap="square"/>
<path d="M554.5 74L534.5 94" stroke="#3B3B3B" stroke-miterlimit="10" stroke-linecap="square"/>
<g opacity="0.15">
<path d="M580.081 81.684C580.741 64.1627 589.621 48.0026 605.853 37.3238C605.901 37.3418 606.322 37.1887 606.13 37.5522C604.844 38.7445 581.727 66.0525 603.005 87.6077C603.005 87.6077 614.186 98.3557 622.855 88.1573C622.855 88.1573 631.41 77.0825 622.747 60.294C622.747 60.294 620.554 54.8122 612.654 51.4118L619.016 44.3918C619.016 44.3918 624.393 46.6987 628.556 52.9557C628.556 52.9557 628.778 46.3681 623.732 39.3484L633.597 28.1564L643.362 39.2432C643.362 39.2432 638.871 45.6054 638.541 53.0609C638.541 53.0609 641.608 48.0145 648.192 44.3922L654.44 51.4122C654.44 51.4122 648.432 53.3919 644.408 60.2225C640.947 66.5513 638.283 80.0866 644.563 88.3891C644.563 88.3891 651.592 98.356 663.956 87.8009C663.956 87.8009 686.69 67.4316 661.625 37.9821C661.625 37.9821 660.255 36.7715 661.793 37.4294C672.871 45.4949 686.136 56.1313 687.506 82.6759C686.965 114.865 665.41 137.844 633.933 137.844C603.114 137.844 579.156 112.125 580.081 81.684Z" fill="#EDEDED"/>
</g>
<g opacity="0.15">
<path fill-rule="evenodd" clip-rule="evenodd" d="M780.271 100.88C779.185 99.2947 773.391 90.8373 773.391 90.8373L777.807 102.983L764.116 104.971L777.807 106.958L772.507 117.337C772.507 117.337 779.119 110.386 780.053 109.404C779.668 124.454 779.574 128.158 779.574 128.158C779.574 128.158 745.787 112.479 764.557 77.8082C764.557 77.8082 741.149 51.9709 762.349 36.071C762.349 36.071 726.133 57.9332 749.099 95.4749C749.099 95.4749 730.108 76.9251 740.045 58.1539C740.045 58.1539 722.821 82.4458 743.799 109.167C743.799 109.167 738.058 105.633 732.979 92.1625C732.979 92.1625 736.684 132.264 781.55 132.79C781.55 132.796 781.55 132.796 781.55 132.796C781.699 132.796 781.849 132.795 781.997 132.794C782.146 132.795 782.295 132.796 782.444 132.796C782.444 132.796 782.444 132.796 782.444 132.79C827.31 132.264 831.015 92.1625 831.015 92.1625C825.936 105.633 820.195 109.167 820.195 109.167C841.173 82.4458 823.949 58.1539 823.949 58.1539C833.886 76.9251 814.895 95.4749 814.895 95.4749C837.861 57.9332 801.645 36.071 801.645 36.071C822.845 51.9709 799.437 77.8082 799.437 77.8082C818.207 112.479 784.421 128.158 784.421 128.158C784.421 128.158 784.326 124.454 783.941 109.404C784.875 110.386 791.487 117.337 791.487 117.337L786.187 106.958L799.878 104.971L786.187 102.983L790.603 90.8373C790.603 90.8373 784.809 99.2947 783.723 100.88C783.231 81.6557 782.011 33.9568 782.005 33.7316C782.003 33.2027 782.003 33.1998 782.003 33.1998C782.003 33.1998 782.003 33.2002 781.997 33.4196C781.991 33.2003 781.991 33.1998 781.991 33.1998C781.991 33.1998 781.991 33.2027 781.989 33.7316C781.979 34.1078 780.762 81.6992 780.271 100.88" fill="#EDEDED"/>
<path d="M782 19.7189C747.051 19.7189 718.719 48.0505 718.719 83C718.719 117.949 747.051 146.282 782 146.282C816.95 146.282 845.281 117.949 845.281 83C845.281 48.0505 816.95 19.7189 782 19.7189V19.7189Z" stroke="#EDEDED" stroke-width="0.0301341" stroke-miterlimit="10"/>
<path fill-rule="evenodd" clip-rule="evenodd" d="M782 19.7189C747.051 19.7189 718.719 48.0511 718.719 83C718.719 117.949 747.051 146.282 782 146.282C816.949 146.282 845.281 117.949 845.281 83C845.281 48.0511 816.949 19.7189 782 19.7189ZM782 27.3C812.762 27.3 837.7 52.2382 837.7 83C837.7 113.762 812.762 138.7 782 138.7C751.239 138.7 726.3 113.762 726.3 83C726.3 52.2382 751.239 27.3 782 27.3Z" fill="#EDEDED"/>
</g>
<g opacity="0.15">
<path d="M930 23.2291C962.993 23.2291 989.771 50.0065 989.771 83.0001C989.771 115.994 962.993 142.771 930 142.771C897.006 142.771 870.229 115.994 870.229 83.0001C870.229 50.0065 897.006 23.2291 930 23.2291Z" stroke="#EDEDED" stroke-width="4.12214"/>
<path d="M936.885 30.7259V36.864C944.609 38.0063 951.716 41.0306 957.721 45.4754L962.055 41.1472C954.889 35.6478 946.276 31.9512 936.885 30.7259ZM923.082 30.7452C913.696 31.9776 905.091 35.6819 897.93 41.1794L902.239 45.5076H902.259C908.26 41.0599 915.361 38.0129 923.082 36.864V30.7452ZM926.135 43.2534V63.9156C923.632 64.4209 921.292 65.3961 919.237 66.7624L904.623 52.1546L899.154 57.6229L913.781 72.25C912.419 74.3027 911.426 76.6365 910.922 79.1353H890.253V86.8643H910.922C911.426 89.3618 912.42 91.6782 913.781 93.7302L899.154 108.364L904.623 113.832L919.237 99.2178C921.292 100.584 923.632 101.572 926.135 102.078V122.746H933.864V102.078C936.369 101.572 938.692 100.567 940.749 99.1985L955.376 113.832L960.845 108.364L946.217 93.7302C947.579 91.6786 948.579 89.3612 949.084 86.8643H969.746V79.1353H949.084C948.579 76.6371 947.58 74.3024 946.217 72.25L960.845 57.6229L955.376 52.1546L940.749 66.7817C938.692 65.4134 936.369 64.4214 933.864 63.9156V43.2534H926.135ZM971.82 50.9115L967.492 55.2397C971.948 61.2467 974.986 68.3706 976.135 76.1016H982.273C981.041 66.7053 977.33 58.0786 971.82 50.9115ZM888.16 50.9437C882.661 58.1039 878.957 66.7159 877.726 76.1016H883.87C885.017 68.3831 888.048 61.2793 892.494 55.2784L888.16 50.9437ZM877.726 89.8979C878.953 99.2823 882.651 107.894 888.147 115.056L892.475 110.721C888.033 104.721 885.014 97.6153 883.87 89.8979H877.726ZM976.135 89.8979C974.986 97.6239 971.946 104.733 967.492 110.74L971.82 115.069C977.325 107.904 981.039 99.2887 982.273 89.8979H976.135ZM902.239 120.492L897.911 124.82C905.074 130.327 913.692 134.039 923.082 135.274V129.129C915.357 127.978 908.242 124.945 902.239 120.492ZM957.721 120.505C951.714 124.954 944.612 128.005 936.885 129.148V135.274C946.277 134.047 954.889 130.339 962.055 124.839L957.74 120.505H957.721Z" fill="#EDEDED"/>
</g>
<g opacity="0.15">
<path d="M1076.5 135.769C1104.58 135.769 1127.35 113.002 1127.35 84.9185C1127.35 56.8348 1104.58 34.0685 1076.5 34.0685C1048.42 34.0685 1025.65 56.8348 1025.65 84.9185C1025.65 113.002 1048.42 135.769 1076.5 135.769Z" stroke="#EDEDED" stroke-width="5.65" stroke-miterlimit="10" stroke-linecap="square"/>
<path d="M1133 28.4185L1020 141.419" stroke="#EDEDED" stroke-width="5.65" stroke-miterlimit="10" stroke-linecap="square"/>
</g>
<rect x="0.5" y="0.5" width="1159" height="166" rx="4.5" stroke="#7B61FF" stroke-dasharray="10 5"/>
<defs>
<clipPath id="clip0_12_859">
<rect width="16" height="16" fill="white" transform="translate(68 75.5)"/>
</clipPath>
<clipPath id="clip1_12_859">
<rect width="12" height="12" fill="white" transform="translate(120 77.5)"/>
</clipPath>
<clipPath id="clip2_12_859">
<rect width="12" height="12" fill="white" transform="translate(144 77.5)"/>
</clipPath>
<clipPath id="clip3_12_859">
<rect width="12" height="12" fill="white" transform="translate(168 77.5)"/>
</clipPath>
<clipPath id="clip4_12_859">
<rect width="12" height="12" fill="white" transform="translate(192 77.5)"/>
</clipPath>
<clipPath id="clip5_12_859">
<rect width="12" height="12" fill="white" transform="translate(216 77.5)"/>
</clipPath>
<clipPath id="clip6_12_859">
<rect width="12" height="12" fill="white" transform="translate(240 77.5)"/>
</clipPath>
<clipPath id="clip7_12_859">
<rect width="16" height="16" fill="white" transform="translate(264 75.5)"/>
</clipPath>
<clipPath id="clip8_12_859">
<rect width="12" height="12" fill="white" transform="translate(316 77.5)"/>
</clipPath>
<clipPath id="clip9_12_859">
<rect width="16" height="16" fill="white" transform="translate(340 75.5)"/>
</clipPath>
<clipPath id="clip10_12_859">
<rect width="16" height="16" fill="white" transform="translate(368 75.5)"/>
</clipPath>
<clipPath id="clip11_12_859">
<rect width="16" height="16" fill="white" transform="translate(396 75.5)"/>
</clipPath>
</defs>
</svg>
