<svg width="121" height="98" viewBox="0 0 121 98" fill="none" xmlns="http://www.w3.org/2000/svg">
<path fill-rule="evenodd" clip-rule="evenodd" d="M62.2713 66.8799C61.1851 65.2946 55.3906 56.8372 55.3906 56.8372L59.8068 68.9831L46.1157 70.9707L59.8068 72.9583L54.5069 83.3374C54.5069 83.3374 61.1191 76.3862 62.0533 75.404C61.6683 90.4542 61.5736 94.1581 61.5736 94.1581C61.5736 94.1581 27.787 78.479 46.5573 43.8081C46.5573 43.8081 23.1495 17.9709 44.349 2.07098C44.349 2.07098 8.1332 23.9332 31.0994 61.4749C31.0994 61.4749 12.1081 42.925 22.0453 24.1539C22.0453 24.1539 4.82085 48.4457 25.7994 75.1668C25.7994 75.1668 20.058 71.6331 14.979 58.1625C14.979 58.1625 18.6839 98.2642 63.5499 98.7904C63.5498 98.7957 63.5498 98.7957 63.5498 98.7957C63.6994 98.7957 63.8485 98.7947 63.9971 98.7943C64.1456 98.7952 64.2948 98.7957 64.4442 98.7957C64.4442 98.7957 64.4442 98.7957 64.4442 98.7904C109.31 98.2642 113.015 58.1625 113.015 58.1625C107.936 71.6331 102.195 75.1668 102.195 75.1668C123.173 48.4457 105.949 24.1539 105.949 24.1539C115.886 42.925 96.8947 61.4749 96.8947 61.4749C119.861 23.9332 83.6451 2.07098 83.6451 2.07098C104.845 17.9709 81.4368 43.8081 81.4368 43.8081C100.207 78.479 66.4206 94.1581 66.4206 94.1581C66.4206 94.1581 66.3258 90.4542 65.9408 75.404C66.875 76.3862 73.4872 83.3374 73.4872 83.3374L68.1873 72.9583L81.8784 70.9707L68.1873 68.9831L72.6035 56.8372C72.6035 56.8372 66.8089 65.2946 65.7227 66.8799C65.2309 47.6556 64.0108 -0.0432992 64.0049 -0.268426C64.0027 -0.797405 64.0027 -0.800293 64.0027 -0.800293C64.0027 -0.800293 64.0027 -0.799822 63.997 -0.580439C63.9914 -0.79979 63.9914 -0.800293 63.9914 -0.800293C63.9914 -0.800293 63.9914 -0.797402 63.989 -0.268426C63.9794 0.107748 62.762 47.6992 62.2714 66.8799" fill="#EDEDED"/>
<path d="M64.0003 -14.2812C29.0509 -14.2812 0.71875 14.0503 0.71875 48.9999C0.71875 83.9493 29.0509 112.281 64.0003 112.281C98.9499 112.281 127.281 83.9493 127.281 48.9999C127.281 14.0503 98.9499 -14.2812 64.0003 -14.2812V-14.2812Z" stroke="#EDEDED" stroke-width="0.0301341" stroke-miterlimit="10"/>
<path fill-rule="evenodd" clip-rule="evenodd" d="M64.0003 -14.2812C29.0514 -14.2812 0.71875 14.051 0.71875 48.9999C0.71875 83.9488 29.0514 112.281 64.0003 112.281C98.9493 112.281 127.281 83.9488 127.281 48.9999C127.281 14.051 98.9493 -14.2812 64.0003 -14.2812V-14.2812ZM64.0003 -6.70014C94.7621 -6.70014 119.7 18.2381 119.7 48.9999C119.7 79.7616 94.7621 104.7 64.0003 104.7C33.2386 104.7 8.30035 79.7616 8.30035 48.9999C8.30035 18.2381 33.2386 -6.70014 64.0003 -6.70014" fill="#EDEDED"/>
</svg>
