<svg width="108" height="98" viewBox="0 0 108 98" fill="none" xmlns="http://www.w3.org/2000/svg">
<path d="M0.0805865 47.684C0.741477 30.1627 9.621 14.0026 25.8534 3.32384C25.9014 3.34181 26.3219 3.18866 26.1298 3.55225C24.8439 4.74447 1.72663 32.0525 23.0054 53.6077C23.0054 53.6077 34.1855 64.3557 42.855 54.1573C42.855 54.1573 51.4099 43.0825 42.7468 26.294C42.7468 26.294 40.5541 20.8122 32.6537 17.4118L39.0162 10.3918C39.0162 10.3918 44.3928 12.6987 48.5563 18.9557C48.5563 18.9557 48.7783 12.3681 43.7319 5.34845L53.5966 -5.84363L63.3621 5.24323C63.3621 5.24323 58.8714 11.6054 58.5408 19.0609C58.5408 19.0609 61.6078 14.0145 68.1924 10.3922L74.4403 17.4122C74.4403 17.4122 68.4324 19.3919 64.4075 26.2225C60.9469 32.5513 58.2828 46.0866 64.5633 54.3891C64.5633 54.3891 71.5923 64.356 83.9564 53.8009C83.9564 53.8009 106.69 33.4316 81.6251 3.98211C81.6251 3.98211 80.2554 2.77154 81.7932 3.42943C92.8715 11.4949 106.136 22.1313 107.506 48.6759C106.965 80.8652 85.4096 103.844 53.9332 103.844C23.114 103.844 -0.844286 78.125 0.0805865 47.684Z" fill="#EDEDED"/>
</svg>
