<svg width="36" height="32" viewBox="0 0 36 32" fill="none" xmlns="http://www.w3.org/2000/svg">
<rect width="36" height="32" rx="4" fill="#D4D4D4"/>
<path d="M18 5.37405C23.8655 5.37406 28.6259 10.1345 28.6259 16C28.6259 21.8655 23.8655 26.626 18 26.626C12.1345 26.626 7.37402 21.8655 7.37402 16C7.37402 10.1345 12.1345 5.37405 18 5.37405Z" stroke="#757575" stroke-width="0.732824"/>
<path d="M19.224 6.70688V7.7981C20.5971 8.00116 21.8607 8.53882 22.9282 9.32902L23.6988 8.55955C22.4248 7.58188 20.8935 6.92471 19.224 6.70688ZM16.7701 6.71031C15.1016 6.9294 13.5718 7.58794 12.2988 8.56528L13.0648 9.33474H13.0682C14.1351 8.54403 15.3975 8.00234 16.7701 7.7981V6.71031ZM17.3129 8.93398V12.6073C16.8679 12.6971 16.452 12.8705 16.0866 13.1134L13.4885 10.5164L12.5163 11.4886L15.1167 14.0889C14.8745 14.4539 14.698 14.8688 14.6083 15.313H10.9339V16.687H14.6083C14.698 17.131 14.8746 17.5429 15.1167 17.9076L12.5163 20.5092L13.4885 21.4813L16.0866 18.8832C16.452 19.1261 16.8679 19.3018 17.3129 19.3916V23.066H18.6869V19.3916C19.1324 19.3017 19.5453 19.123 19.911 18.8798L22.5114 21.4813L23.4835 20.5092L20.8831 17.9076C21.1251 17.5429 21.303 17.1309 21.3927 16.687H25.0659V15.313H21.3927C21.303 14.8689 21.1253 14.4538 20.8831 14.0889L23.4835 11.4886L22.5114 10.5164L19.911 13.1168C19.5453 12.8735 19.1324 12.6972 18.6869 12.6073V8.93398H17.3129ZM25.4347 10.2954L24.6652 11.0649C25.4574 12.1328 25.9976 13.3993 26.2018 14.7737H27.293C27.074 13.1032 26.4143 11.5696 25.4347 10.2954ZM10.5617 10.3012C9.58412 11.5741 8.92564 13.1051 8.70679 14.7737H9.79915C10.0031 13.4015 10.5418 12.1386 11.3324 11.0718L10.5617 10.3012ZM8.70679 17.2263C8.92502 18.8947 9.58238 20.4256 10.5595 21.6989L11.3289 20.9283C10.5393 19.8616 10.0026 18.5983 9.79915 17.2263H8.70679ZM26.2018 17.2263C25.9975 18.5999 25.4571 19.8637 24.6652 20.9317L25.4347 21.7012C26.4133 20.4274 27.0737 18.8958 27.293 17.2263H26.2018ZM13.0648 22.6653L12.2953 23.4347C13.5687 24.4138 15.1008 25.0737 16.7701 25.2931V24.2008C15.3969 23.9962 14.1319 23.4569 13.0648 22.6653ZM22.9282 22.6676C21.8603 23.4585 20.5977 24.0009 19.224 24.2042V25.2931C20.8936 25.0751 22.4248 24.4158 23.6988 23.4382L22.9316 22.6676H22.9282Z" fill="#757575"/>
</svg>
