<svg width="36" height="32" viewBox="0 0 36 32" fill="none" xmlns="http://www.w3.org/2000/svg">
<rect x="0.5" y="0.5" width="35" height="31" rx="3.5" fill="white"/>
<g clip-path="url(#clip0_31_16140)">
<path fill-rule="evenodd" clip-rule="evenodd" d="M17.6927 19.1786C17.4996 18.8968 16.4694 17.3933 16.4694 17.3933L17.2545 19.5526L14.8206 19.9059L17.2545 20.2593L16.3123 22.1044C16.3123 22.1044 17.4878 20.8687 17.6539 20.694C17.5855 23.3696 17.5686 24.0281 17.5686 24.0281C17.5686 24.0281 11.5621 21.2407 14.8991 15.077C14.8991 15.077 10.7377 10.4837 14.5065 7.65706C14.5065 7.65706 8.06812 11.5437 12.151 18.2177C12.151 18.2177 8.77478 14.92 10.5414 11.5829C10.5414 11.5829 7.47926 15.9015 11.2088 20.6519C11.2088 20.6519 10.1881 20.0237 9.28516 17.6289C9.28516 17.6289 9.9438 24.7581 17.92 24.8516C17.92 24.8526 17.92 24.8526 17.92 24.8526C17.9466 24.8526 17.9731 24.8524 17.9995 24.8523C18.0259 24.8525 18.0524 24.8526 18.079 24.8526C18.079 24.8526 18.079 24.8526 18.079 24.8516C26.0552 24.7581 26.7138 17.6289 26.7138 17.6289C25.8109 20.0237 24.7902 20.6519 24.7902 20.6519C28.5197 15.9015 25.4576 11.5829 25.4576 11.5829C27.2242 14.92 23.848 18.2177 23.848 18.2177C27.9308 11.5437 21.4925 7.65706 21.4925 7.65706C25.2613 10.4837 21.0999 15.077 21.0999 15.077C24.4368 21.2407 18.4303 24.0281 18.4303 24.0281C18.4303 24.0281 18.4135 23.3696 18.345 20.694C18.5111 20.8687 19.6866 22.1044 19.6866 22.1044L18.7444 20.2593L21.1784 19.9059L18.7444 19.5526L19.5295 17.3933C19.5295 17.3933 18.4994 18.8968 18.3063 19.1786C18.2188 15.761 18.0019 7.28118 18.0009 7.24116C18.0005 7.14712 18.0005 7.14661 18.0005 7.14661C18.0005 7.14661 18.0005 7.14669 17.9995 7.18569C17.9985 7.1467 17.9985 7.14661 17.9985 7.14661C17.9985 7.14661 17.9985 7.14712 17.998 7.24116C17.9963 7.30804 17.7799 15.7687 17.6927 19.1786" fill="#276749"/>
<path d="M18.0001 4.75C11.7868 4.75 6.75 9.78673 6.75 16C6.75 22.2132 11.7868 27.25 18.0001 27.25C24.2133 27.25 29.25 22.2132 29.25 16C29.25 9.78673 24.2133 4.75 18.0001 4.75V4.75Z" stroke="#276749" stroke-width="0.00535718" stroke-miterlimit="10"/>
<path fill-rule="evenodd" clip-rule="evenodd" d="M18.0001 4.75C11.7869 4.75 6.75 9.78684 6.75 16C6.75 22.2131 11.7869 27.25 18.0001 27.25C24.2132 27.25 29.25 22.2131 29.25 16C29.25 9.78684 24.2132 4.75 18.0001 4.75ZM18.0001 6.09775C23.4688 6.09775 27.9023 10.5312 27.9023 16C27.9023 21.4687 23.4688 25.9022 18.0001 25.9022C12.5313 25.9022 8.09784 21.4687 8.09784 16C8.09784 10.5312 12.5313 6.09775 18.0001 6.09775Z" fill="#276749"/>
</g>
<rect x="0.5" y="0.5" width="35" height="31" rx="3.5" stroke="#B8B8B8"/>
<defs>
<clipPath id="clip0_31_16140">
<rect x="6" y="4" width="24" height="24" fill="white"/>
</clipPath>
</defs>
</svg>
