<svg width="36" height="32" viewBox="0 0 36 32" fill="none" xmlns="http://www.w3.org/2000/svg">
<rect x="0.5" y="0.5" width="35" height="31" rx="3.5" fill="white"/>
<path d="M8.23654 15.766C8.35403 12.6511 9.93261 9.77821 12.8184 7.87977C12.8269 7.88297 12.9017 7.85574 12.8675 7.92038C12.6389 8.13233 8.52917 12.9871 12.3121 16.8191C12.3121 16.8191 14.2996 18.7299 15.8409 16.9168C15.8409 16.9168 17.3617 14.948 15.8216 11.9634C15.8216 11.9634 15.4318 10.9888 14.0273 10.3843L15.1584 9.1363C15.1584 9.1363 16.1143 9.54642 16.8544 10.6588C16.8544 10.6588 16.8939 9.48764 15.9968 8.2397L17.7505 6.25L19.4866 8.221C19.4866 8.221 18.6882 9.35205 18.6295 10.6775C18.6295 10.6775 19.1747 9.78034 20.3453 9.13637L21.456 10.3844C21.456 10.3844 20.388 10.7363 19.6724 11.9506C19.0572 13.0758 18.5836 15.482 19.7001 16.958C19.7001 16.958 20.9497 18.7299 23.1478 16.8535C23.1478 16.8535 27.1892 13.2323 22.7333 7.9968C22.7333 7.9968 22.4898 7.78159 22.7632 7.89854C24.7327 9.33241 27.0909 11.2233 27.3344 15.9424C27.2383 21.6649 23.4061 25.75 17.8103 25.75C12.3314 25.75 8.07212 21.1778 8.23654 15.766Z" fill="#C53030"/>
<rect x="0.5" y="0.5" width="35" height="31" rx="3.5" stroke="#B8B8B8"/>
</svg>
